<svg width="683" height="683" viewBox="0 0 683 683" fill="none" xmlns="http://www.w3.org/2000/svg">
<g clip-path="url(#clip0_4514_18941)">
<path d="M0.933754 422.666C2.93375 473.866 9.60042 550.266 13.4671 566.533C24.4004 613.066 69.6004 658.266 116.134 669.2C128.267 672.133 165.467 675.866 217.334 679.6C264.534 682.933 418.134 682.933 465.334 679.6C517.2 675.866 554.4 672.133 566.534 669.2C613.067 658.266 658.267 613.2 669.2 566.533C673.067 550 678.534 488.8 681.334 428.666C683.067 392.533 683.067 290.133 681.334 254C678.534 193.866 673.067 132.666 669.2 116.133C658.267 69.4663 613.067 24.3996 566.534 13.4663C554.4 10.533 517.2 6.79965 465.334 3.06632C418.134 -0.267017 264.534 -0.267017 217.334 3.06632C165.467 6.79965 128.267 10.533 116.134 13.4663C69.4671 24.3996 24.2671 69.5996 13.4671 116.133C9.33375 133.733 4.26709 190.533 1.33375 252.666C0.133753 277.333 -0.132913 396 0.933754 422.666ZM187.867 471.2C191.067 464.666 202.667 452.533 253.6 401.733C324.134 331.466 322.4 332.666 341.334 332.8C360.534 332.8 358.8 331.333 429.734 402.4C500.267 473.066 499.334 471.866 499.334 490.666C499.334 514.666 481.467 533.333 457.334 534.4C449.467 534.8 445.6 534.266 439.334 532C431.867 529.2 428.4 526.133 386.267 484.266L341.334 439.466L296.267 484.266C254.8 525.6 250.8 529.2 243.6 531.866C238.8 533.6 232.8 534.666 227.467 534.666C194.534 534.666 172.934 500.133 187.867 471.2ZM187.467 260C190.4 253.866 201.467 242.266 252.534 191.066C323.467 120.133 321.067 122 341.334 122C361.6 122 359.2 120.133 430.134 191.066C500.267 261.333 499.334 260.133 499.334 279.333C499.334 288.266 498.667 291.2 495.6 297.6C490.934 307.2 482.667 315.466 473.334 319.866C467.334 322.666 464 323.333 455.334 323.333C436.534 323.333 435.334 322.533 385.067 272.266L341.334 228.8L297.6 272.266C247.334 322.533 246.134 323.333 227.334 323.333C218.534 323.333 215.334 322.666 209.334 319.866C186.267 308.8 176.667 282.666 187.467 260Z" fill="black"/>
</g>
<defs>
<clipPath id="clip0_4514_18941">
<rect width="682.667" height="682.667" fill="white" transform="matrix(0 -1 1 0 0 682.667)"/>
</clipPath>
</defs>
</svg>
